<svg xmlns="http://www.w3.org/2000/svg" width="68.896" height="45.644" viewBox="0 0 68.896 45.644">
  <g id="thumb_up" transform="translate(-1536.363 -1069.686)">
    <g id="Rectangle_37" data-name="Rectangle 37" transform="translate(1536.363 1069.686)" fill="#fff" stroke="#707070" stroke-width="1">
      <rect width="68.896" height="45.644" rx="10" stroke="none"/>
      <rect x="0.5" y="0.5" width="67.896" height="44.644" rx="9.5" fill="none"/>
    </g>
    <g id="thumbs-up" transform="translate(1555.623 1076.145)">
      <path id="Path_34" data-name="Path 34" d="M48.117,18.66a5.8,5.8,0,0,0,.983-3.27,5.207,5.207,0,0,0-5.136-5.117H40.433A8.809,8.809,0,0,0,41.4,6.421a8.325,8.325,0,0,0-.7-3.732A4.41,4.41,0,0,0,38.647.652,6.853,6.853,0,0,0,35.618,0a2.545,2.545,0,0,0-1.806.743A4.824,4.824,0,0,0,32.568,2.91q-.381,1.324-.612,2.538a3.405,3.405,0,0,1-.712,1.715Q30.261,8.226,29.1,9.731a17.746,17.746,0,0,1-2.749,3.11h-5.5a2.569,2.569,0,0,0-2.568,2.568V28.25a2.569,2.569,0,0,0,2.568,2.568h5.778a14.837,14.837,0,0,1,2.769.8q2.468.863,4.344,1.314a16.19,16.19,0,0,0,3.8.452h2.588a6.4,6.4,0,0,0,4.554-1.616,5.682,5.682,0,0,0,1.706-4.4A5.647,5.647,0,0,0,47.6,23.8a6.069,6.069,0,0,0-.06-.863,5.762,5.762,0,0,0,.763-2.889A5.24,5.24,0,0,0,48.117,18.66ZM23.038,27.869a1.26,1.26,0,1,1,.381-.9A1.235,1.235,0,0,1,23.038,27.869ZM46.1,17.036q-.431.923-1.074.943a2.71,2.71,0,0,1,.5.953,3.608,3.608,0,0,1,.2,1.114,3.171,3.171,0,0,1-1.063,2.387,2.774,2.774,0,0,1,.361,1.384,3.379,3.379,0,0,1-.351,1.475,2.237,2.237,0,0,1-.953,1.053,6.861,6.861,0,0,1,.1,1.124q0,3.35-3.853,3.35H37.545a22.166,22.166,0,0,1-6.862-1.465q-.1-.04-.582-.211l-.712-.251q-.231-.081-.7-.231t-.762-.221q-.291-.07-.662-.13a4.044,4.044,0,0,0-.632-.06h-.642V15.41h.642a1.725,1.725,0,0,0,.712-.18,3.391,3.391,0,0,0,.8-.542q.411-.361.772-.712a11.414,11.414,0,0,0,.8-.883q.441-.532.692-.853t.632-.823q.381-.5.461-.6,1.1-1.364,1.545-1.826a5.1,5.1,0,0,0,1.194-2.2q.372-1.334.612-2.518a3.32,3.32,0,0,1,.763-1.706,2.919,2.919,0,0,1,2.568.943,5.24,5.24,0,0,1,.642,2.909,8.2,8.2,0,0,1-.963,3.22,8.185,8.185,0,0,0-.963,3.2h7.062a2.472,2.472,0,0,1,1.786.773,2.447,2.447,0,0,1,.783,1.8A3.943,3.943,0,0,1,46.1,17.036Z" transform="translate(-18.283 0)" fill="#a5a01a"/>
    </g>
  </g>
</svg>
